<?xml version="1.0" standalone="no"?>
<!DOCTYPE svg PUBLIC "-//W3C//DTD SVG 20010904//EN"
 "http://www.w3.org/TR/2001/REC-SVG-20010904/DTD/svg10.dtd">
<svg version="1.0" xmlns="http://www.w3.org/2000/svg"
 width="135.000000pt" height="121.000000pt" viewBox="0 0 135.000000 121.000000"
 preserveAspectRatio="xMidYMid meet">

<g transform="translate(0.000000,121.000000) scale(0.100000,-0.100000)"
fill="#000000" stroke="none">
<path d="M642 587 c-2 -222 -9 -254 -64 -287 -20 -12 -51 -20 -77 -20 -37 0
-49 6 -82 39 -33 33 -39 45 -39 82 0 90 57 139 160 139 87 0 76 -23 -13 -30
-55 -4 -71 -10 -93 -31 -72 -72 5 -201 101 -169 19 6 44 23 55 37 19 25 20 38
18 217 l-3 191 -95 0 c-82 0 -103 -4 -152 -27 -223 -104 -272 -394 -97 -570
84 -84 198 -121 306 -99 181 36 293 178 293 371 l0 69 78 4 77 3 -77 2 c-61 2
-78 5 -78 17 0 11 18 15 78 18 l77 3 -77 2 c-62 2 -78 5 -78 17 0 12 15 15 73
16 39 1 59 4 42 6 -95 11 -115 15 -115 24 0 5 15 9 33 10 17 1 43 5 57 9 19 6
11 8 -33 9 -85 1 -71 24 19 32 l69 5 -72 2 c-57 2 -73 5 -73 17 0 11 18 15 78
18 l77 3 -77 2 c-61 2 -78 5 -78 17 0 10 16 15 63 18 l62 3 -67 2 -68 2 0
-188 c0 -216 -11 -279 -65 -358 -63 -91 -144 -136 -260 -142 -64 -3 -91 0
-135 17 -75 28 -152 98 -187 169 -25 50 -28 68 -28 152 0 89 2 99 34 158 63
115 160 173 304 180 75 4 87 2 87 -12 0 -13 -12 -16 -75 -16 -139 0 -243 -61
-296 -174 -72 -153 -12 -337 135 -415 170 -89 371 -8 438 177 14 39 17 80 16
232 l-1 185 -7 -191 c-6 -190 -6 -192 -39 -258 -134 -272 -538 -189 -558 114
-9 120 56 233 161 285 68 33 226 49 226 21 0 -13 -11 -16 -63 -16 -172 0 -284
-95 -295 -251 -11 -164 104 -289 269 -289 108 0 188 51 240 153 24 47 37 196
23 273 -7 42 -10 27 -14 -97 -5 -140 -6 -147 -35 -194 -59 -94 -173 -143 -273
-117 -141 37 -227 180 -188 314 34 117 120 185 245 193 35 2 69 1 77 -2 32
-12 10 -21 -63 -25 -91 -5 -146 -30 -191 -83 -122 -149 -16 -375 176 -375 68
0 148 42 187 98 l30 44 1 201 1 202 -6 -196 c-6 -193 -6 -196 -34 -238 -118
-178 -390 -94 -390 120 0 71 32 132 91 174 39 27 53 30 128 34 57 2 84 -1 84
-8 0 -6 -20 -11 -47 -11 -103 0 -181 -42 -214 -114 -25 -55 -24 -102 4 -156
65 -128 228 -146 313 -34 l29 37 1 221 1 221 -6 -210 c-5 -186 -8 -214 -26
-244 -70 -118 -233 -113 -295 10 -42 81 -10 184 70 226 49 26 175 34 168 11
-3 -8 -31 -15 -74 -18 -108 -8 -157 -51 -158 -140 -1 -53 18 -87 68 -124 38
-29 114 -29 153 0 61 45 64 61 60 290 l-2 209 -3 -198z m-47 -155 c0 -57 -3
-66 -28 -88 -90 -77 -201 44 -117 127 27 27 35 30 87 27 l58 -3 0 -63z"/>
</g>
</svg>
